%TF.GenerationSoftware,KiCad,Pcbnew,7.0.5-0*%
%TF.CreationDate,2023-07-07T14:44:46-07:00*%
%TF.ProjectId,loots of leds 2.0,6c6f6f74-7320-46f6-9620-6c6564732032,rev?*%
%TF.SameCoordinates,Original*%
%TF.FileFunction,Soldermask,Bot*%
%TF.FilePolarity,Negative*%
%FSLAX46Y46*%
G04 Gerber Fmt 4.6, Leading zero omitted, Abs format (unit mm)*
G04 Created by KiCad (PCBNEW 7.0.5-0) date 2023-07-07 14:44:46*
%MOMM*%
%LPD*%
G01*
G04 APERTURE LIST*
%ADD10C,2.000000*%
%ADD11C,1.600000*%
%ADD12O,1.600000X1.600000*%
%ADD13R,1.800000X1.800000*%
%ADD14C,1.800000*%
%ADD15R,1.700000X1.700000*%
%ADD16O,1.700000X1.700000*%
G04 APERTURE END LIST*
D10*
%TO.C,SW4*%
X161850000Y-35850000D03*
X168350000Y-35850000D03*
X161850000Y-40350000D03*
X168350000Y-40350000D03*
%TD*%
%TO.C,SW5*%
X161850000Y-46010000D03*
X168350000Y-46010000D03*
X161850000Y-50510000D03*
X168350000Y-50510000D03*
%TD*%
D11*
%TO.C,R7*%
X180340000Y-88900000D03*
D12*
X190500000Y-88900000D03*
%TD*%
D13*
%TO.C,D5*%
X172720000Y-48260000D03*
D14*
X175260000Y-48260000D03*
%TD*%
D11*
%TO.C,R2*%
X180340000Y-99060000D03*
D12*
X190500000Y-99060000D03*
%TD*%
D11*
%TO.C,R3*%
X180340000Y-119380000D03*
D12*
X190500000Y-119380000D03*
%TD*%
D13*
%TO.C,D1*%
X172720000Y-68580000D03*
D14*
X175260000Y-68580000D03*
%TD*%
D13*
%TO.C,D9*%
X172720000Y-109220000D03*
D14*
X175260000Y-109220000D03*
%TD*%
D15*
%TO.C,J1*%
X175260000Y-27940000D03*
D16*
X177800000Y-27940000D03*
%TD*%
D11*
%TO.C,R8*%
X180340000Y-78740000D03*
D12*
X190500000Y-78740000D03*
%TD*%
D10*
%TO.C,SW9*%
X161850000Y-66330000D03*
X168350000Y-66330000D03*
X161850000Y-70830000D03*
X168350000Y-70830000D03*
%TD*%
D13*
%TO.C,D7*%
X172720000Y-88900000D03*
D14*
X175260000Y-88900000D03*
%TD*%
D13*
%TO.C,D6*%
X172720000Y-38100000D03*
D14*
X175260000Y-38100000D03*
%TD*%
D13*
%TO.C,D8*%
X172720000Y-78740000D03*
D14*
X175260000Y-78740000D03*
%TD*%
D13*
%TO.C,D3*%
X172720000Y-119380000D03*
D14*
X175260000Y-119380000D03*
%TD*%
D11*
%TO.C,R9*%
X180340000Y-109220000D03*
D12*
X190500000Y-109220000D03*
%TD*%
D10*
%TO.C,SW3*%
X161850000Y-86650000D03*
X168350000Y-86650000D03*
X161850000Y-91150000D03*
X168350000Y-91150000D03*
%TD*%
%TO.C,SW6*%
X161850000Y-56170000D03*
X168350000Y-56170000D03*
X161850000Y-60670000D03*
X168350000Y-60670000D03*
%TD*%
D11*
%TO.C,R6*%
X180340000Y-38100000D03*
D12*
X190500000Y-38100000D03*
%TD*%
D10*
%TO.C,SW7*%
X161850000Y-117130000D03*
X168350000Y-117130000D03*
X161850000Y-121630000D03*
X168350000Y-121630000D03*
%TD*%
D13*
%TO.C,D4*%
X172720000Y-58420000D03*
D14*
X175260000Y-58420000D03*
%TD*%
D10*
%TO.C,SW8*%
X161850000Y-96810000D03*
X168350000Y-96810000D03*
X161850000Y-101310000D03*
X168350000Y-101310000D03*
%TD*%
D11*
%TO.C,R5*%
X180340000Y-48260000D03*
D12*
X190500000Y-48260000D03*
%TD*%
D13*
%TO.C,D2*%
X172720000Y-99060000D03*
D14*
X175260000Y-99060000D03*
%TD*%
D11*
%TO.C,R4*%
X180340000Y-58420000D03*
D12*
X190500000Y-58420000D03*
%TD*%
D10*
%TO.C,SW1*%
X161850000Y-106970000D03*
X168350000Y-106970000D03*
X161850000Y-111470000D03*
X168350000Y-111470000D03*
%TD*%
%TO.C,SW2*%
X161850000Y-76490000D03*
X168350000Y-76490000D03*
X161850000Y-80990000D03*
X168350000Y-80990000D03*
%TD*%
D11*
%TO.C,R1*%
X180340000Y-68580000D03*
D12*
X190500000Y-68580000D03*
%TD*%
M02*
