%TF.GenerationSoftware,KiCad,Pcbnew,7.0.5-0*%
%TF.CreationDate,2023-07-07T14:44:34-07:00*%
%TF.ProjectId,loots of leds 2.0,6c6f6f74-7320-46f6-9620-6c6564732032,rev?*%
%TF.SameCoordinates,Original*%
%TF.FileFunction,Drillmap*%
%TF.FilePolarity,Positive*%
%FSLAX45Y45*%
G04 Gerber Fmt 4.5, Leading zero omitted, Abs format (unit mm)*
G04 Created by KiCad (PCBNEW 7.0.5-0) date 2023-07-07 14:44:34*
%MOMM*%
%LPD*%
G01*
G04 APERTURE LIST*
%ADD10C,0.100000*%
%ADD11C,0.200000*%
G04 APERTURE END LIST*
D10*
X15494000Y-2286000D02*
X19558000Y-2286000D01*
X19558000Y-12700000D01*
X15494000Y-12700000D01*
X15494000Y-2286000D01*
D11*
X15749777Y-13016484D02*
X15749777Y-12816484D01*
X15749777Y-12816484D02*
X15797396Y-12816484D01*
X15797396Y-12816484D02*
X15825967Y-12826008D01*
X15825967Y-12826008D02*
X15845015Y-12845055D01*
X15845015Y-12845055D02*
X15854539Y-12864103D01*
X15854539Y-12864103D02*
X15864062Y-12902198D01*
X15864062Y-12902198D02*
X15864062Y-12930769D01*
X15864062Y-12930769D02*
X15854539Y-12968865D01*
X15854539Y-12968865D02*
X15845015Y-12987912D01*
X15845015Y-12987912D02*
X15825967Y-13006960D01*
X15825967Y-13006960D02*
X15797396Y-13016484D01*
X15797396Y-13016484D02*
X15749777Y-13016484D01*
X15949777Y-13016484D02*
X15949777Y-12883150D01*
X15949777Y-12921246D02*
X15959301Y-12902198D01*
X15959301Y-12902198D02*
X15968824Y-12892674D01*
X15968824Y-12892674D02*
X15987872Y-12883150D01*
X15987872Y-12883150D02*
X16006920Y-12883150D01*
X16073586Y-13016484D02*
X16073586Y-12883150D01*
X16073586Y-12816484D02*
X16064062Y-12826008D01*
X16064062Y-12826008D02*
X16073586Y-12835531D01*
X16073586Y-12835531D02*
X16083110Y-12826008D01*
X16083110Y-12826008D02*
X16073586Y-12816484D01*
X16073586Y-12816484D02*
X16073586Y-12835531D01*
X16197396Y-13016484D02*
X16178348Y-13006960D01*
X16178348Y-13006960D02*
X16168824Y-12987912D01*
X16168824Y-12987912D02*
X16168824Y-12816484D01*
X16302158Y-13016484D02*
X16283110Y-13006960D01*
X16283110Y-13006960D02*
X16273586Y-12987912D01*
X16273586Y-12987912D02*
X16273586Y-12816484D01*
X16530729Y-13016484D02*
X16530729Y-12816484D01*
X16530729Y-12816484D02*
X16597396Y-12959341D01*
X16597396Y-12959341D02*
X16664062Y-12816484D01*
X16664062Y-12816484D02*
X16664062Y-13016484D01*
X16845015Y-13016484D02*
X16845015Y-12911722D01*
X16845015Y-12911722D02*
X16835491Y-12892674D01*
X16835491Y-12892674D02*
X16816444Y-12883150D01*
X16816444Y-12883150D02*
X16778348Y-12883150D01*
X16778348Y-12883150D02*
X16759301Y-12892674D01*
X16845015Y-13006960D02*
X16825967Y-13016484D01*
X16825967Y-13016484D02*
X16778348Y-13016484D01*
X16778348Y-13016484D02*
X16759301Y-13006960D01*
X16759301Y-13006960D02*
X16749777Y-12987912D01*
X16749777Y-12987912D02*
X16749777Y-12968865D01*
X16749777Y-12968865D02*
X16759301Y-12949817D01*
X16759301Y-12949817D02*
X16778348Y-12940293D01*
X16778348Y-12940293D02*
X16825967Y-12940293D01*
X16825967Y-12940293D02*
X16845015Y-12930769D01*
X16940253Y-12883150D02*
X16940253Y-13083150D01*
X16940253Y-12892674D02*
X16959301Y-12883150D01*
X16959301Y-12883150D02*
X16997396Y-12883150D01*
X16997396Y-12883150D02*
X17016444Y-12892674D01*
X17016444Y-12892674D02*
X17025967Y-12902198D01*
X17025967Y-12902198D02*
X17035491Y-12921246D01*
X17035491Y-12921246D02*
X17035491Y-12978388D01*
X17035491Y-12978388D02*
X17025967Y-12997436D01*
X17025967Y-12997436D02*
X17016444Y-13006960D01*
X17016444Y-13006960D02*
X16997396Y-13016484D01*
X16997396Y-13016484D02*
X16959301Y-13016484D01*
X16959301Y-13016484D02*
X16940253Y-13006960D01*
X17121205Y-12997436D02*
X17130729Y-13006960D01*
X17130729Y-13006960D02*
X17121205Y-13016484D01*
X17121205Y-13016484D02*
X17111682Y-13006960D01*
X17111682Y-13006960D02*
X17121205Y-12997436D01*
X17121205Y-12997436D02*
X17121205Y-13016484D01*
X17121205Y-12892674D02*
X17130729Y-12902198D01*
X17130729Y-12902198D02*
X17121205Y-12911722D01*
X17121205Y-12911722D02*
X17111682Y-12902198D01*
X17111682Y-12902198D02*
X17121205Y-12892674D01*
X17121205Y-12892674D02*
X17121205Y-12911722D01*
M02*
