M48
; DRILL file {KiCad 7.0.5-0} date 2023 July 07, Friday 14:44:35
; FORMAT={-:-/ absolute / inch / decimal}
; #@! TF.CreationDate,2023-07-07T14:44:35-07:00
; #@! TF.GenerationSoftware,Kicad,Pcbnew,7.0.5-0
; #@! TF.FileFunction,Plated,1,2,PTH
FMAT,2
INCH
; #@! TA.AperFunction,Plated,PTH,ComponentDrill
T1C0.0315
; #@! TA.AperFunction,Plated,PTH,ComponentDrill
T2C0.0354
; #@! TA.AperFunction,Plated,PTH,ComponentDrill
T3C0.0394
; #@! TA.AperFunction,Plated,PTH,ComponentDrill
T4C0.0433
%
G90
G05
T1
X7.1Y-1.5
X7.1Y-1.9
X7.1Y-2.3
X7.1Y-2.7
X7.1Y-3.1
X7.1Y-3.5
X7.1Y-3.9
X7.1Y-4.3
X7.1Y-4.7
X7.5Y-1.5
X7.5Y-1.9
X7.5Y-2.3
X7.5Y-2.7
X7.5Y-3.1
X7.5Y-3.5
X7.5Y-3.9
X7.5Y-4.3
X7.5Y-4.7
T2
X6.8Y-1.5
X6.8Y-1.9
X6.8Y-2.3
X6.8Y-2.7
X6.8Y-3.1
X6.8Y-3.5
X6.8Y-3.9
X6.8Y-4.3
X6.8Y-4.7
X6.9Y-1.5
X6.9Y-1.9
X6.9Y-2.3
X6.9Y-2.7
X6.9Y-3.1
X6.9Y-3.5
X6.9Y-3.9
X6.9Y-4.3
X6.9Y-4.7
T3
X6.9Y-1.1
X7.0Y-1.1
T4
X6.372Y-1.4114
X6.372Y-1.5886
X6.372Y-1.8114
X6.372Y-1.9886
X6.372Y-2.2114
X6.372Y-2.3886
X6.372Y-2.6114
X6.372Y-2.7886
X6.372Y-3.0114
X6.372Y-3.1886
X6.372Y-3.4114
X6.372Y-3.5886
X6.372Y-3.8114
X6.372Y-3.9886
X6.372Y-4.2114
X6.372Y-4.3886
X6.372Y-4.6114
X6.372Y-4.7886
X6.628Y-1.4114
X6.628Y-1.5886
X6.628Y-1.8114
X6.628Y-1.9886
X6.628Y-2.2114
X6.628Y-2.3886
X6.628Y-2.6114
X6.628Y-2.7886
X6.628Y-3.0114
X6.628Y-3.1886
X6.628Y-3.4114
X6.628Y-3.5886
X6.628Y-3.8114
X6.628Y-3.9886
X6.628Y-4.2114
X6.628Y-4.3886
X6.628Y-4.6114
X6.628Y-4.7886
T0
M30
