%TF.GenerationSoftware,KiCad,Pcbnew,7.0.5-0*%
%TF.CreationDate,2023-07-07T14:44:46-07:00*%
%TF.ProjectId,loots of leds 2.0,6c6f6f74-7320-46f6-9620-6c6564732032,rev?*%
%TF.SameCoordinates,Original*%
%TF.FileFunction,Copper,L1,Top*%
%TF.FilePolarity,Positive*%
%FSLAX46Y46*%
G04 Gerber Fmt 4.6, Leading zero omitted, Abs format (unit mm)*
G04 Created by KiCad (PCBNEW 7.0.5-0) date 2023-07-07 14:44:46*
%MOMM*%
%LPD*%
G01*
G04 APERTURE LIST*
%TA.AperFunction,ComponentPad*%
%ADD10C,2.000000*%
%TD*%
%TA.AperFunction,ComponentPad*%
%ADD11C,1.600000*%
%TD*%
%TA.AperFunction,ComponentPad*%
%ADD12O,1.600000X1.600000*%
%TD*%
%TA.AperFunction,ComponentPad*%
%ADD13R,1.800000X1.800000*%
%TD*%
%TA.AperFunction,ComponentPad*%
%ADD14C,1.800000*%
%TD*%
%TA.AperFunction,ComponentPad*%
%ADD15R,1.700000X1.700000*%
%TD*%
%TA.AperFunction,ComponentPad*%
%ADD16O,1.700000X1.700000*%
%TD*%
%TA.AperFunction,Conductor*%
%ADD17C,0.250000*%
%TD*%
G04 APERTURE END LIST*
D10*
%TO.P,SW4,1,1*%
%TO.N,Net-(J1-Pin_1)*%
X161850000Y-35850000D03*
X168350000Y-35850000D03*
%TO.P,SW4,2,2*%
%TO.N,Net-(D6-K)*%
X161850000Y-40350000D03*
X168350000Y-40350000D03*
%TD*%
%TO.P,SW5,1,1*%
%TO.N,Net-(J1-Pin_1)*%
X161850000Y-46010000D03*
X168350000Y-46010000D03*
%TO.P,SW5,2,2*%
%TO.N,Net-(D5-K)*%
X161850000Y-50510000D03*
X168350000Y-50510000D03*
%TD*%
D11*
%TO.P,R7,1*%
%TO.N,Net-(D7-A)*%
X180340000Y-88900000D03*
D12*
%TO.P,R7,2*%
%TO.N,Net-(J1-Pin_2)*%
X190500000Y-88900000D03*
%TD*%
D13*
%TO.P,D5,1,K*%
%TO.N,Net-(D5-K)*%
X172720000Y-48260000D03*
D14*
%TO.P,D5,2,A*%
%TO.N,Net-(D5-A)*%
X175260000Y-48260000D03*
%TD*%
D11*
%TO.P,R2,1*%
%TO.N,Net-(D2-A)*%
X180340000Y-99060000D03*
D12*
%TO.P,R2,2*%
%TO.N,Net-(J1-Pin_2)*%
X190500000Y-99060000D03*
%TD*%
D11*
%TO.P,R3,1*%
%TO.N,Net-(D3-A)*%
X180340000Y-119380000D03*
D12*
%TO.P,R3,2*%
%TO.N,Net-(J1-Pin_2)*%
X190500000Y-119380000D03*
%TD*%
D13*
%TO.P,D1,1,K*%
%TO.N,Net-(D1-K)*%
X172720000Y-68580000D03*
D14*
%TO.P,D1,2,A*%
%TO.N,Net-(D1-A)*%
X175260000Y-68580000D03*
%TD*%
D13*
%TO.P,D9,1,K*%
%TO.N,Net-(D9-K)*%
X172720000Y-109220000D03*
D14*
%TO.P,D9,2,A*%
%TO.N,Net-(D9-A)*%
X175260000Y-109220000D03*
%TD*%
D15*
%TO.P,J1,1,Pin_1*%
%TO.N,Net-(J1-Pin_1)*%
X175260000Y-27940000D03*
D16*
%TO.P,J1,2,Pin_2*%
%TO.N,Net-(J1-Pin_2)*%
X177800000Y-27940000D03*
%TD*%
D11*
%TO.P,R8,1*%
%TO.N,Net-(D8-A)*%
X180340000Y-78740000D03*
D12*
%TO.P,R8,2*%
%TO.N,Net-(J1-Pin_2)*%
X190500000Y-78740000D03*
%TD*%
D10*
%TO.P,SW9,1,1*%
%TO.N,Net-(J1-Pin_1)*%
X161850000Y-66330000D03*
X168350000Y-66330000D03*
%TO.P,SW9,2,2*%
%TO.N,Net-(D1-K)*%
X161850000Y-70830000D03*
X168350000Y-70830000D03*
%TD*%
D13*
%TO.P,D7,1,K*%
%TO.N,Net-(D7-K)*%
X172720000Y-88900000D03*
D14*
%TO.P,D7,2,A*%
%TO.N,Net-(D7-A)*%
X175260000Y-88900000D03*
%TD*%
D13*
%TO.P,D6,1,K*%
%TO.N,Net-(D6-K)*%
X172720000Y-38100000D03*
D14*
%TO.P,D6,2,A*%
%TO.N,Net-(D6-A)*%
X175260000Y-38100000D03*
%TD*%
D13*
%TO.P,D8,1,K*%
%TO.N,Net-(D8-K)*%
X172720000Y-78740000D03*
D14*
%TO.P,D8,2,A*%
%TO.N,Net-(D8-A)*%
X175260000Y-78740000D03*
%TD*%
D13*
%TO.P,D3,1,K*%
%TO.N,Net-(D3-K)*%
X172720000Y-119380000D03*
D14*
%TO.P,D3,2,A*%
%TO.N,Net-(D3-A)*%
X175260000Y-119380000D03*
%TD*%
D11*
%TO.P,R9,1*%
%TO.N,Net-(D9-A)*%
X180340000Y-109220000D03*
D12*
%TO.P,R9,2*%
%TO.N,Net-(J1-Pin_2)*%
X190500000Y-109220000D03*
%TD*%
D10*
%TO.P,SW3,1,1*%
%TO.N,Net-(J1-Pin_1)*%
X161850000Y-86650000D03*
X168350000Y-86650000D03*
%TO.P,SW3,2,2*%
%TO.N,Net-(D7-K)*%
X161850000Y-91150000D03*
X168350000Y-91150000D03*
%TD*%
%TO.P,SW6,1,1*%
%TO.N,Net-(J1-Pin_1)*%
X161850000Y-56170000D03*
X168350000Y-56170000D03*
%TO.P,SW6,2,2*%
%TO.N,Net-(D4-K)*%
X161850000Y-60670000D03*
X168350000Y-60670000D03*
%TD*%
D11*
%TO.P,R6,1*%
%TO.N,Net-(D6-A)*%
X180340000Y-38100000D03*
D12*
%TO.P,R6,2*%
%TO.N,Net-(J1-Pin_2)*%
X190500000Y-38100000D03*
%TD*%
D10*
%TO.P,SW7,1,1*%
%TO.N,Net-(J1-Pin_1)*%
X161850000Y-117130000D03*
X168350000Y-117130000D03*
%TO.P,SW7,2,2*%
%TO.N,Net-(D3-K)*%
X161850000Y-121630000D03*
X168350000Y-121630000D03*
%TD*%
D13*
%TO.P,D4,1,K*%
%TO.N,Net-(D4-K)*%
X172720000Y-58420000D03*
D14*
%TO.P,D4,2,A*%
%TO.N,Net-(D4-A)*%
X175260000Y-58420000D03*
%TD*%
D10*
%TO.P,SW8,1,1*%
%TO.N,Net-(J1-Pin_1)*%
X161850000Y-96810000D03*
X168350000Y-96810000D03*
%TO.P,SW8,2,2*%
%TO.N,Net-(D2-K)*%
X161850000Y-101310000D03*
X168350000Y-101310000D03*
%TD*%
D11*
%TO.P,R5,1*%
%TO.N,Net-(D5-A)*%
X180340000Y-48260000D03*
D12*
%TO.P,R5,2*%
%TO.N,Net-(J1-Pin_2)*%
X190500000Y-48260000D03*
%TD*%
D13*
%TO.P,D2,1,K*%
%TO.N,Net-(D2-K)*%
X172720000Y-99060000D03*
D14*
%TO.P,D2,2,A*%
%TO.N,Net-(D2-A)*%
X175260000Y-99060000D03*
%TD*%
D11*
%TO.P,R4,1*%
%TO.N,Net-(D4-A)*%
X180340000Y-58420000D03*
D12*
%TO.P,R4,2*%
%TO.N,Net-(J1-Pin_2)*%
X190500000Y-58420000D03*
%TD*%
D10*
%TO.P,SW1,1,1*%
%TO.N,Net-(J1-Pin_1)*%
X161850000Y-106970000D03*
X168350000Y-106970000D03*
%TO.P,SW1,2,2*%
%TO.N,Net-(D9-K)*%
X161850000Y-111470000D03*
X168350000Y-111470000D03*
%TD*%
%TO.P,SW2,1,1*%
%TO.N,Net-(J1-Pin_1)*%
X161850000Y-76490000D03*
X168350000Y-76490000D03*
%TO.P,SW2,2,2*%
%TO.N,Net-(D8-K)*%
X161850000Y-80990000D03*
X168350000Y-80990000D03*
%TD*%
D11*
%TO.P,R1,1*%
%TO.N,Net-(D1-A)*%
X180340000Y-68580000D03*
D12*
%TO.P,R1,2*%
%TO.N,Net-(J1-Pin_2)*%
X190500000Y-68580000D03*
%TD*%
D17*
%TO.N,Net-(D1-K)*%
X168350000Y-70830000D02*
X161850000Y-70830000D01*
X172720000Y-68580000D02*
X170600000Y-68580000D01*
X170600000Y-68580000D02*
X168350000Y-70830000D01*
%TO.N,Net-(D1-A)*%
X180340000Y-68580000D02*
X175260000Y-68580000D01*
%TO.N,Net-(D2-K)*%
X172720000Y-99060000D02*
X170600000Y-99060000D01*
X168350000Y-101310000D02*
X161850000Y-101310000D01*
X170600000Y-99060000D02*
X168350000Y-101310000D01*
%TO.N,Net-(D2-A)*%
X175260000Y-99060000D02*
X180340000Y-99060000D01*
%TO.N,Net-(D3-K)*%
X168350000Y-121630000D02*
X161850000Y-121630000D01*
X170600000Y-119380000D02*
X168350000Y-121630000D01*
X172720000Y-119380000D02*
X170600000Y-119380000D01*
%TO.N,Net-(D3-A)*%
X175260000Y-119380000D02*
X180340000Y-119380000D01*
%TO.N,Net-(D4-K)*%
X172720000Y-58420000D02*
X170600000Y-58420000D01*
X170600000Y-58420000D02*
X168350000Y-60670000D01*
X168350000Y-60670000D02*
X161850000Y-60670000D01*
%TO.N,Net-(D4-A)*%
X175260000Y-58420000D02*
X180340000Y-58420000D01*
%TO.N,Net-(D5-K)*%
X168350000Y-50510000D02*
X161850000Y-50510000D01*
X170600000Y-48260000D02*
X168350000Y-50510000D01*
X172720000Y-48260000D02*
X170600000Y-48260000D01*
%TO.N,Net-(D5-A)*%
X180340000Y-48260000D02*
X175260000Y-48260000D01*
%TO.N,Net-(D6-K)*%
X170470000Y-40350000D02*
X172720000Y-38100000D01*
X168350000Y-40350000D02*
X170470000Y-40350000D01*
X168350000Y-40350000D02*
X161850000Y-40350000D01*
%TO.N,Net-(D6-A)*%
X175260000Y-38100000D02*
X180340000Y-38100000D01*
%TO.N,Net-(D7-K)*%
X170600000Y-88900000D02*
X168350000Y-91150000D01*
X168350000Y-91150000D02*
X161850000Y-91150000D01*
X172720000Y-88900000D02*
X170600000Y-88900000D01*
%TO.N,Net-(D7-A)*%
X180340000Y-88900000D02*
X175260000Y-88900000D01*
%TO.N,Net-(D8-K)*%
X172720000Y-78740000D02*
X170600000Y-78740000D01*
X170600000Y-78740000D02*
X168350000Y-80990000D01*
X168350000Y-80990000D02*
X161850000Y-80990000D01*
%TO.N,Net-(D8-A)*%
X175260000Y-78740000D02*
X180340000Y-78740000D01*
%TO.N,Net-(D9-K)*%
X172720000Y-109220000D02*
X170600000Y-109220000D01*
X170600000Y-109220000D02*
X168350000Y-111470000D01*
X168350000Y-111470000D02*
X161850000Y-111470000D01*
%TO.N,Net-(D9-A)*%
X180340000Y-109220000D02*
X175260000Y-109220000D01*
%TO.N,Net-(J1-Pin_1)*%
X161850000Y-66330000D02*
X168350000Y-66330000D01*
X160020000Y-108800000D02*
X160020000Y-115300000D01*
X160020000Y-84820000D02*
X161850000Y-86650000D01*
X161850000Y-35850000D02*
X160020000Y-37680000D01*
X168350000Y-46010000D02*
X161850000Y-46010000D01*
X160020000Y-115300000D02*
X161850000Y-117130000D01*
X160020000Y-58000000D02*
X160020000Y-64500000D01*
X161850000Y-86650000D02*
X160020000Y-88480000D01*
X175260000Y-27940000D02*
X175260000Y-28940000D01*
X160020000Y-68160000D02*
X160020000Y-76200000D01*
X168350000Y-96810000D02*
X161850000Y-96810000D01*
X160020000Y-78320000D02*
X160020000Y-84820000D01*
X168350000Y-106970000D02*
X161850000Y-106970000D01*
X160020000Y-105140000D02*
X161850000Y-106970000D01*
X168350000Y-117130000D02*
X161850000Y-117130000D01*
X160020000Y-44180000D02*
X161850000Y-46010000D01*
X160020000Y-98640000D02*
X160020000Y-105140000D01*
X160020000Y-64500000D02*
X161850000Y-66330000D01*
X161850000Y-86650000D02*
X168350000Y-86650000D01*
X161850000Y-66330000D02*
X160020000Y-68160000D01*
X160020000Y-76200000D02*
X160310000Y-76490000D01*
X160020000Y-88480000D02*
X160020000Y-94980000D01*
X160020000Y-54340000D02*
X161850000Y-56170000D01*
X161850000Y-96810000D02*
X160020000Y-98640000D01*
X161850000Y-46010000D02*
X160020000Y-47840000D01*
X161850000Y-76490000D02*
X168350000Y-76490000D01*
X160020000Y-94980000D02*
X161850000Y-96810000D01*
X161850000Y-106970000D02*
X160020000Y-108800000D01*
X160020000Y-47840000D02*
X160020000Y-54340000D01*
X160020000Y-37680000D02*
X160020000Y-44180000D01*
X175260000Y-28940000D02*
X168350000Y-35850000D01*
X161850000Y-56170000D02*
X160020000Y-58000000D01*
X161850000Y-56170000D02*
X168350000Y-56170000D01*
X168350000Y-35850000D02*
X161850000Y-35850000D01*
X160310000Y-76490000D02*
X161850000Y-76490000D01*
X161850000Y-76490000D02*
X160020000Y-78320000D01*
%TO.N,Net-(J1-Pin_2)*%
X180340000Y-27940000D02*
X190500000Y-38100000D01*
X190500000Y-48260000D02*
X190500000Y-119380000D01*
X190500000Y-38100000D02*
X190500000Y-48260000D01*
X177800000Y-27940000D02*
X180340000Y-27940000D01*
%TD*%
M02*
