%TF.GenerationSoftware,KiCad,Pcbnew,7.0.5-0*%
%TF.CreationDate,2023-07-07T14:44:46-07:00*%
%TF.ProjectId,loots of leds 2.0,6c6f6f74-7320-46f6-9620-6c6564732032,rev?*%
%TF.SameCoordinates,Original*%
%TF.FileFunction,Legend,Top*%
%TF.FilePolarity,Positive*%
%FSLAX46Y46*%
G04 Gerber Fmt 4.6, Leading zero omitted, Abs format (unit mm)*
G04 Created by KiCad (PCBNEW 7.0.5-0) date 2023-07-07 14:44:46*
%MOMM*%
%LPD*%
G01*
G04 APERTURE LIST*
%ADD10C,0.150000*%
%ADD11C,0.120000*%
G04 APERTURE END LIST*
D10*
%TO.C,SW4*%
X163766667Y-34257200D02*
X163909524Y-34304819D01*
X163909524Y-34304819D02*
X164147619Y-34304819D01*
X164147619Y-34304819D02*
X164242857Y-34257200D01*
X164242857Y-34257200D02*
X164290476Y-34209580D01*
X164290476Y-34209580D02*
X164338095Y-34114342D01*
X164338095Y-34114342D02*
X164338095Y-34019104D01*
X164338095Y-34019104D02*
X164290476Y-33923866D01*
X164290476Y-33923866D02*
X164242857Y-33876247D01*
X164242857Y-33876247D02*
X164147619Y-33828628D01*
X164147619Y-33828628D02*
X163957143Y-33781009D01*
X163957143Y-33781009D02*
X163861905Y-33733390D01*
X163861905Y-33733390D02*
X163814286Y-33685771D01*
X163814286Y-33685771D02*
X163766667Y-33590533D01*
X163766667Y-33590533D02*
X163766667Y-33495295D01*
X163766667Y-33495295D02*
X163814286Y-33400057D01*
X163814286Y-33400057D02*
X163861905Y-33352438D01*
X163861905Y-33352438D02*
X163957143Y-33304819D01*
X163957143Y-33304819D02*
X164195238Y-33304819D01*
X164195238Y-33304819D02*
X164338095Y-33352438D01*
X164671429Y-33304819D02*
X164909524Y-34304819D01*
X164909524Y-34304819D02*
X165100000Y-33590533D01*
X165100000Y-33590533D02*
X165290476Y-34304819D01*
X165290476Y-34304819D02*
X165528572Y-33304819D01*
X166338095Y-33638152D02*
X166338095Y-34304819D01*
X166100000Y-33257200D02*
X165861905Y-33971485D01*
X165861905Y-33971485D02*
X166480952Y-33971485D01*
%TO.C,SW5*%
X163766667Y-44417200D02*
X163909524Y-44464819D01*
X163909524Y-44464819D02*
X164147619Y-44464819D01*
X164147619Y-44464819D02*
X164242857Y-44417200D01*
X164242857Y-44417200D02*
X164290476Y-44369580D01*
X164290476Y-44369580D02*
X164338095Y-44274342D01*
X164338095Y-44274342D02*
X164338095Y-44179104D01*
X164338095Y-44179104D02*
X164290476Y-44083866D01*
X164290476Y-44083866D02*
X164242857Y-44036247D01*
X164242857Y-44036247D02*
X164147619Y-43988628D01*
X164147619Y-43988628D02*
X163957143Y-43941009D01*
X163957143Y-43941009D02*
X163861905Y-43893390D01*
X163861905Y-43893390D02*
X163814286Y-43845771D01*
X163814286Y-43845771D02*
X163766667Y-43750533D01*
X163766667Y-43750533D02*
X163766667Y-43655295D01*
X163766667Y-43655295D02*
X163814286Y-43560057D01*
X163814286Y-43560057D02*
X163861905Y-43512438D01*
X163861905Y-43512438D02*
X163957143Y-43464819D01*
X163957143Y-43464819D02*
X164195238Y-43464819D01*
X164195238Y-43464819D02*
X164338095Y-43512438D01*
X164671429Y-43464819D02*
X164909524Y-44464819D01*
X164909524Y-44464819D02*
X165100000Y-43750533D01*
X165100000Y-43750533D02*
X165290476Y-44464819D01*
X165290476Y-44464819D02*
X165528572Y-43464819D01*
X166385714Y-43464819D02*
X165909524Y-43464819D01*
X165909524Y-43464819D02*
X165861905Y-43941009D01*
X165861905Y-43941009D02*
X165909524Y-43893390D01*
X165909524Y-43893390D02*
X166004762Y-43845771D01*
X166004762Y-43845771D02*
X166242857Y-43845771D01*
X166242857Y-43845771D02*
X166338095Y-43893390D01*
X166338095Y-43893390D02*
X166385714Y-43941009D01*
X166385714Y-43941009D02*
X166433333Y-44036247D01*
X166433333Y-44036247D02*
X166433333Y-44274342D01*
X166433333Y-44274342D02*
X166385714Y-44369580D01*
X166385714Y-44369580D02*
X166338095Y-44417200D01*
X166338095Y-44417200D02*
X166242857Y-44464819D01*
X166242857Y-44464819D02*
X166004762Y-44464819D01*
X166004762Y-44464819D02*
X165909524Y-44417200D01*
X165909524Y-44417200D02*
X165861905Y-44369580D01*
%TO.C,R7*%
X185253333Y-86984819D02*
X184920000Y-86508628D01*
X184681905Y-86984819D02*
X184681905Y-85984819D01*
X184681905Y-85984819D02*
X185062857Y-85984819D01*
X185062857Y-85984819D02*
X185158095Y-86032438D01*
X185158095Y-86032438D02*
X185205714Y-86080057D01*
X185205714Y-86080057D02*
X185253333Y-86175295D01*
X185253333Y-86175295D02*
X185253333Y-86318152D01*
X185253333Y-86318152D02*
X185205714Y-86413390D01*
X185205714Y-86413390D02*
X185158095Y-86461009D01*
X185158095Y-86461009D02*
X185062857Y-86508628D01*
X185062857Y-86508628D02*
X184681905Y-86508628D01*
X185586667Y-85984819D02*
X186253333Y-85984819D01*
X186253333Y-85984819D02*
X185824762Y-86984819D01*
%TO.C,D5*%
X173251905Y-44704819D02*
X173251905Y-43704819D01*
X173251905Y-43704819D02*
X173490000Y-43704819D01*
X173490000Y-43704819D02*
X173632857Y-43752438D01*
X173632857Y-43752438D02*
X173728095Y-43847676D01*
X173728095Y-43847676D02*
X173775714Y-43942914D01*
X173775714Y-43942914D02*
X173823333Y-44133390D01*
X173823333Y-44133390D02*
X173823333Y-44276247D01*
X173823333Y-44276247D02*
X173775714Y-44466723D01*
X173775714Y-44466723D02*
X173728095Y-44561961D01*
X173728095Y-44561961D02*
X173632857Y-44657200D01*
X173632857Y-44657200D02*
X173490000Y-44704819D01*
X173490000Y-44704819D02*
X173251905Y-44704819D01*
X174728095Y-43704819D02*
X174251905Y-43704819D01*
X174251905Y-43704819D02*
X174204286Y-44181009D01*
X174204286Y-44181009D02*
X174251905Y-44133390D01*
X174251905Y-44133390D02*
X174347143Y-44085771D01*
X174347143Y-44085771D02*
X174585238Y-44085771D01*
X174585238Y-44085771D02*
X174680476Y-44133390D01*
X174680476Y-44133390D02*
X174728095Y-44181009D01*
X174728095Y-44181009D02*
X174775714Y-44276247D01*
X174775714Y-44276247D02*
X174775714Y-44514342D01*
X174775714Y-44514342D02*
X174728095Y-44609580D01*
X174728095Y-44609580D02*
X174680476Y-44657200D01*
X174680476Y-44657200D02*
X174585238Y-44704819D01*
X174585238Y-44704819D02*
X174347143Y-44704819D01*
X174347143Y-44704819D02*
X174251905Y-44657200D01*
X174251905Y-44657200D02*
X174204286Y-44609580D01*
%TO.C,R2*%
X185253333Y-97144819D02*
X184920000Y-96668628D01*
X184681905Y-97144819D02*
X184681905Y-96144819D01*
X184681905Y-96144819D02*
X185062857Y-96144819D01*
X185062857Y-96144819D02*
X185158095Y-96192438D01*
X185158095Y-96192438D02*
X185205714Y-96240057D01*
X185205714Y-96240057D02*
X185253333Y-96335295D01*
X185253333Y-96335295D02*
X185253333Y-96478152D01*
X185253333Y-96478152D02*
X185205714Y-96573390D01*
X185205714Y-96573390D02*
X185158095Y-96621009D01*
X185158095Y-96621009D02*
X185062857Y-96668628D01*
X185062857Y-96668628D02*
X184681905Y-96668628D01*
X185634286Y-96240057D02*
X185681905Y-96192438D01*
X185681905Y-96192438D02*
X185777143Y-96144819D01*
X185777143Y-96144819D02*
X186015238Y-96144819D01*
X186015238Y-96144819D02*
X186110476Y-96192438D01*
X186110476Y-96192438D02*
X186158095Y-96240057D01*
X186158095Y-96240057D02*
X186205714Y-96335295D01*
X186205714Y-96335295D02*
X186205714Y-96430533D01*
X186205714Y-96430533D02*
X186158095Y-96573390D01*
X186158095Y-96573390D02*
X185586667Y-97144819D01*
X185586667Y-97144819D02*
X186205714Y-97144819D01*
%TO.C,R3*%
X185253333Y-117464819D02*
X184920000Y-116988628D01*
X184681905Y-117464819D02*
X184681905Y-116464819D01*
X184681905Y-116464819D02*
X185062857Y-116464819D01*
X185062857Y-116464819D02*
X185158095Y-116512438D01*
X185158095Y-116512438D02*
X185205714Y-116560057D01*
X185205714Y-116560057D02*
X185253333Y-116655295D01*
X185253333Y-116655295D02*
X185253333Y-116798152D01*
X185253333Y-116798152D02*
X185205714Y-116893390D01*
X185205714Y-116893390D02*
X185158095Y-116941009D01*
X185158095Y-116941009D02*
X185062857Y-116988628D01*
X185062857Y-116988628D02*
X184681905Y-116988628D01*
X185586667Y-116464819D02*
X186205714Y-116464819D01*
X186205714Y-116464819D02*
X185872381Y-116845771D01*
X185872381Y-116845771D02*
X186015238Y-116845771D01*
X186015238Y-116845771D02*
X186110476Y-116893390D01*
X186110476Y-116893390D02*
X186158095Y-116941009D01*
X186158095Y-116941009D02*
X186205714Y-117036247D01*
X186205714Y-117036247D02*
X186205714Y-117274342D01*
X186205714Y-117274342D02*
X186158095Y-117369580D01*
X186158095Y-117369580D02*
X186110476Y-117417200D01*
X186110476Y-117417200D02*
X186015238Y-117464819D01*
X186015238Y-117464819D02*
X185729524Y-117464819D01*
X185729524Y-117464819D02*
X185634286Y-117417200D01*
X185634286Y-117417200D02*
X185586667Y-117369580D01*
%TO.C,D1*%
X173251905Y-65024819D02*
X173251905Y-64024819D01*
X173251905Y-64024819D02*
X173490000Y-64024819D01*
X173490000Y-64024819D02*
X173632857Y-64072438D01*
X173632857Y-64072438D02*
X173728095Y-64167676D01*
X173728095Y-64167676D02*
X173775714Y-64262914D01*
X173775714Y-64262914D02*
X173823333Y-64453390D01*
X173823333Y-64453390D02*
X173823333Y-64596247D01*
X173823333Y-64596247D02*
X173775714Y-64786723D01*
X173775714Y-64786723D02*
X173728095Y-64881961D01*
X173728095Y-64881961D02*
X173632857Y-64977200D01*
X173632857Y-64977200D02*
X173490000Y-65024819D01*
X173490000Y-65024819D02*
X173251905Y-65024819D01*
X174775714Y-65024819D02*
X174204286Y-65024819D01*
X174490000Y-65024819D02*
X174490000Y-64024819D01*
X174490000Y-64024819D02*
X174394762Y-64167676D01*
X174394762Y-64167676D02*
X174299524Y-64262914D01*
X174299524Y-64262914D02*
X174204286Y-64310533D01*
%TO.C,D9*%
X173251905Y-105664819D02*
X173251905Y-104664819D01*
X173251905Y-104664819D02*
X173490000Y-104664819D01*
X173490000Y-104664819D02*
X173632857Y-104712438D01*
X173632857Y-104712438D02*
X173728095Y-104807676D01*
X173728095Y-104807676D02*
X173775714Y-104902914D01*
X173775714Y-104902914D02*
X173823333Y-105093390D01*
X173823333Y-105093390D02*
X173823333Y-105236247D01*
X173823333Y-105236247D02*
X173775714Y-105426723D01*
X173775714Y-105426723D02*
X173728095Y-105521961D01*
X173728095Y-105521961D02*
X173632857Y-105617200D01*
X173632857Y-105617200D02*
X173490000Y-105664819D01*
X173490000Y-105664819D02*
X173251905Y-105664819D01*
X174299524Y-105664819D02*
X174490000Y-105664819D01*
X174490000Y-105664819D02*
X174585238Y-105617200D01*
X174585238Y-105617200D02*
X174632857Y-105569580D01*
X174632857Y-105569580D02*
X174728095Y-105426723D01*
X174728095Y-105426723D02*
X174775714Y-105236247D01*
X174775714Y-105236247D02*
X174775714Y-104855295D01*
X174775714Y-104855295D02*
X174728095Y-104760057D01*
X174728095Y-104760057D02*
X174680476Y-104712438D01*
X174680476Y-104712438D02*
X174585238Y-104664819D01*
X174585238Y-104664819D02*
X174394762Y-104664819D01*
X174394762Y-104664819D02*
X174299524Y-104712438D01*
X174299524Y-104712438D02*
X174251905Y-104760057D01*
X174251905Y-104760057D02*
X174204286Y-104855295D01*
X174204286Y-104855295D02*
X174204286Y-105093390D01*
X174204286Y-105093390D02*
X174251905Y-105188628D01*
X174251905Y-105188628D02*
X174299524Y-105236247D01*
X174299524Y-105236247D02*
X174394762Y-105283866D01*
X174394762Y-105283866D02*
X174585238Y-105283866D01*
X174585238Y-105283866D02*
X174680476Y-105236247D01*
X174680476Y-105236247D02*
X174728095Y-105188628D01*
X174728095Y-105188628D02*
X174775714Y-105093390D01*
%TO.C,J1*%
X176196666Y-25064819D02*
X176196666Y-25779104D01*
X176196666Y-25779104D02*
X176149047Y-25921961D01*
X176149047Y-25921961D02*
X176053809Y-26017200D01*
X176053809Y-26017200D02*
X175910952Y-26064819D01*
X175910952Y-26064819D02*
X175815714Y-26064819D01*
X177196666Y-26064819D02*
X176625238Y-26064819D01*
X176910952Y-26064819D02*
X176910952Y-25064819D01*
X176910952Y-25064819D02*
X176815714Y-25207676D01*
X176815714Y-25207676D02*
X176720476Y-25302914D01*
X176720476Y-25302914D02*
X176625238Y-25350533D01*
%TO.C,R8*%
X185253333Y-76824819D02*
X184920000Y-76348628D01*
X184681905Y-76824819D02*
X184681905Y-75824819D01*
X184681905Y-75824819D02*
X185062857Y-75824819D01*
X185062857Y-75824819D02*
X185158095Y-75872438D01*
X185158095Y-75872438D02*
X185205714Y-75920057D01*
X185205714Y-75920057D02*
X185253333Y-76015295D01*
X185253333Y-76015295D02*
X185253333Y-76158152D01*
X185253333Y-76158152D02*
X185205714Y-76253390D01*
X185205714Y-76253390D02*
X185158095Y-76301009D01*
X185158095Y-76301009D02*
X185062857Y-76348628D01*
X185062857Y-76348628D02*
X184681905Y-76348628D01*
X185824762Y-76253390D02*
X185729524Y-76205771D01*
X185729524Y-76205771D02*
X185681905Y-76158152D01*
X185681905Y-76158152D02*
X185634286Y-76062914D01*
X185634286Y-76062914D02*
X185634286Y-76015295D01*
X185634286Y-76015295D02*
X185681905Y-75920057D01*
X185681905Y-75920057D02*
X185729524Y-75872438D01*
X185729524Y-75872438D02*
X185824762Y-75824819D01*
X185824762Y-75824819D02*
X186015238Y-75824819D01*
X186015238Y-75824819D02*
X186110476Y-75872438D01*
X186110476Y-75872438D02*
X186158095Y-75920057D01*
X186158095Y-75920057D02*
X186205714Y-76015295D01*
X186205714Y-76015295D02*
X186205714Y-76062914D01*
X186205714Y-76062914D02*
X186158095Y-76158152D01*
X186158095Y-76158152D02*
X186110476Y-76205771D01*
X186110476Y-76205771D02*
X186015238Y-76253390D01*
X186015238Y-76253390D02*
X185824762Y-76253390D01*
X185824762Y-76253390D02*
X185729524Y-76301009D01*
X185729524Y-76301009D02*
X185681905Y-76348628D01*
X185681905Y-76348628D02*
X185634286Y-76443866D01*
X185634286Y-76443866D02*
X185634286Y-76634342D01*
X185634286Y-76634342D02*
X185681905Y-76729580D01*
X185681905Y-76729580D02*
X185729524Y-76777200D01*
X185729524Y-76777200D02*
X185824762Y-76824819D01*
X185824762Y-76824819D02*
X186015238Y-76824819D01*
X186015238Y-76824819D02*
X186110476Y-76777200D01*
X186110476Y-76777200D02*
X186158095Y-76729580D01*
X186158095Y-76729580D02*
X186205714Y-76634342D01*
X186205714Y-76634342D02*
X186205714Y-76443866D01*
X186205714Y-76443866D02*
X186158095Y-76348628D01*
X186158095Y-76348628D02*
X186110476Y-76301009D01*
X186110476Y-76301009D02*
X186015238Y-76253390D01*
%TO.C,SW9*%
X163766667Y-64737200D02*
X163909524Y-64784819D01*
X163909524Y-64784819D02*
X164147619Y-64784819D01*
X164147619Y-64784819D02*
X164242857Y-64737200D01*
X164242857Y-64737200D02*
X164290476Y-64689580D01*
X164290476Y-64689580D02*
X164338095Y-64594342D01*
X164338095Y-64594342D02*
X164338095Y-64499104D01*
X164338095Y-64499104D02*
X164290476Y-64403866D01*
X164290476Y-64403866D02*
X164242857Y-64356247D01*
X164242857Y-64356247D02*
X164147619Y-64308628D01*
X164147619Y-64308628D02*
X163957143Y-64261009D01*
X163957143Y-64261009D02*
X163861905Y-64213390D01*
X163861905Y-64213390D02*
X163814286Y-64165771D01*
X163814286Y-64165771D02*
X163766667Y-64070533D01*
X163766667Y-64070533D02*
X163766667Y-63975295D01*
X163766667Y-63975295D02*
X163814286Y-63880057D01*
X163814286Y-63880057D02*
X163861905Y-63832438D01*
X163861905Y-63832438D02*
X163957143Y-63784819D01*
X163957143Y-63784819D02*
X164195238Y-63784819D01*
X164195238Y-63784819D02*
X164338095Y-63832438D01*
X164671429Y-63784819D02*
X164909524Y-64784819D01*
X164909524Y-64784819D02*
X165100000Y-64070533D01*
X165100000Y-64070533D02*
X165290476Y-64784819D01*
X165290476Y-64784819D02*
X165528572Y-63784819D01*
X165957143Y-64784819D02*
X166147619Y-64784819D01*
X166147619Y-64784819D02*
X166242857Y-64737200D01*
X166242857Y-64737200D02*
X166290476Y-64689580D01*
X166290476Y-64689580D02*
X166385714Y-64546723D01*
X166385714Y-64546723D02*
X166433333Y-64356247D01*
X166433333Y-64356247D02*
X166433333Y-63975295D01*
X166433333Y-63975295D02*
X166385714Y-63880057D01*
X166385714Y-63880057D02*
X166338095Y-63832438D01*
X166338095Y-63832438D02*
X166242857Y-63784819D01*
X166242857Y-63784819D02*
X166052381Y-63784819D01*
X166052381Y-63784819D02*
X165957143Y-63832438D01*
X165957143Y-63832438D02*
X165909524Y-63880057D01*
X165909524Y-63880057D02*
X165861905Y-63975295D01*
X165861905Y-63975295D02*
X165861905Y-64213390D01*
X165861905Y-64213390D02*
X165909524Y-64308628D01*
X165909524Y-64308628D02*
X165957143Y-64356247D01*
X165957143Y-64356247D02*
X166052381Y-64403866D01*
X166052381Y-64403866D02*
X166242857Y-64403866D01*
X166242857Y-64403866D02*
X166338095Y-64356247D01*
X166338095Y-64356247D02*
X166385714Y-64308628D01*
X166385714Y-64308628D02*
X166433333Y-64213390D01*
%TO.C,D7*%
X173251905Y-85344819D02*
X173251905Y-84344819D01*
X173251905Y-84344819D02*
X173490000Y-84344819D01*
X173490000Y-84344819D02*
X173632857Y-84392438D01*
X173632857Y-84392438D02*
X173728095Y-84487676D01*
X173728095Y-84487676D02*
X173775714Y-84582914D01*
X173775714Y-84582914D02*
X173823333Y-84773390D01*
X173823333Y-84773390D02*
X173823333Y-84916247D01*
X173823333Y-84916247D02*
X173775714Y-85106723D01*
X173775714Y-85106723D02*
X173728095Y-85201961D01*
X173728095Y-85201961D02*
X173632857Y-85297200D01*
X173632857Y-85297200D02*
X173490000Y-85344819D01*
X173490000Y-85344819D02*
X173251905Y-85344819D01*
X174156667Y-84344819D02*
X174823333Y-84344819D01*
X174823333Y-84344819D02*
X174394762Y-85344819D01*
%TO.C,D6*%
X173251905Y-34544819D02*
X173251905Y-33544819D01*
X173251905Y-33544819D02*
X173490000Y-33544819D01*
X173490000Y-33544819D02*
X173632857Y-33592438D01*
X173632857Y-33592438D02*
X173728095Y-33687676D01*
X173728095Y-33687676D02*
X173775714Y-33782914D01*
X173775714Y-33782914D02*
X173823333Y-33973390D01*
X173823333Y-33973390D02*
X173823333Y-34116247D01*
X173823333Y-34116247D02*
X173775714Y-34306723D01*
X173775714Y-34306723D02*
X173728095Y-34401961D01*
X173728095Y-34401961D02*
X173632857Y-34497200D01*
X173632857Y-34497200D02*
X173490000Y-34544819D01*
X173490000Y-34544819D02*
X173251905Y-34544819D01*
X174680476Y-33544819D02*
X174490000Y-33544819D01*
X174490000Y-33544819D02*
X174394762Y-33592438D01*
X174394762Y-33592438D02*
X174347143Y-33640057D01*
X174347143Y-33640057D02*
X174251905Y-33782914D01*
X174251905Y-33782914D02*
X174204286Y-33973390D01*
X174204286Y-33973390D02*
X174204286Y-34354342D01*
X174204286Y-34354342D02*
X174251905Y-34449580D01*
X174251905Y-34449580D02*
X174299524Y-34497200D01*
X174299524Y-34497200D02*
X174394762Y-34544819D01*
X174394762Y-34544819D02*
X174585238Y-34544819D01*
X174585238Y-34544819D02*
X174680476Y-34497200D01*
X174680476Y-34497200D02*
X174728095Y-34449580D01*
X174728095Y-34449580D02*
X174775714Y-34354342D01*
X174775714Y-34354342D02*
X174775714Y-34116247D01*
X174775714Y-34116247D02*
X174728095Y-34021009D01*
X174728095Y-34021009D02*
X174680476Y-33973390D01*
X174680476Y-33973390D02*
X174585238Y-33925771D01*
X174585238Y-33925771D02*
X174394762Y-33925771D01*
X174394762Y-33925771D02*
X174299524Y-33973390D01*
X174299524Y-33973390D02*
X174251905Y-34021009D01*
X174251905Y-34021009D02*
X174204286Y-34116247D01*
%TO.C,D8*%
X173251905Y-75184819D02*
X173251905Y-74184819D01*
X173251905Y-74184819D02*
X173490000Y-74184819D01*
X173490000Y-74184819D02*
X173632857Y-74232438D01*
X173632857Y-74232438D02*
X173728095Y-74327676D01*
X173728095Y-74327676D02*
X173775714Y-74422914D01*
X173775714Y-74422914D02*
X173823333Y-74613390D01*
X173823333Y-74613390D02*
X173823333Y-74756247D01*
X173823333Y-74756247D02*
X173775714Y-74946723D01*
X173775714Y-74946723D02*
X173728095Y-75041961D01*
X173728095Y-75041961D02*
X173632857Y-75137200D01*
X173632857Y-75137200D02*
X173490000Y-75184819D01*
X173490000Y-75184819D02*
X173251905Y-75184819D01*
X174394762Y-74613390D02*
X174299524Y-74565771D01*
X174299524Y-74565771D02*
X174251905Y-74518152D01*
X174251905Y-74518152D02*
X174204286Y-74422914D01*
X174204286Y-74422914D02*
X174204286Y-74375295D01*
X174204286Y-74375295D02*
X174251905Y-74280057D01*
X174251905Y-74280057D02*
X174299524Y-74232438D01*
X174299524Y-74232438D02*
X174394762Y-74184819D01*
X174394762Y-74184819D02*
X174585238Y-74184819D01*
X174585238Y-74184819D02*
X174680476Y-74232438D01*
X174680476Y-74232438D02*
X174728095Y-74280057D01*
X174728095Y-74280057D02*
X174775714Y-74375295D01*
X174775714Y-74375295D02*
X174775714Y-74422914D01*
X174775714Y-74422914D02*
X174728095Y-74518152D01*
X174728095Y-74518152D02*
X174680476Y-74565771D01*
X174680476Y-74565771D02*
X174585238Y-74613390D01*
X174585238Y-74613390D02*
X174394762Y-74613390D01*
X174394762Y-74613390D02*
X174299524Y-74661009D01*
X174299524Y-74661009D02*
X174251905Y-74708628D01*
X174251905Y-74708628D02*
X174204286Y-74803866D01*
X174204286Y-74803866D02*
X174204286Y-74994342D01*
X174204286Y-74994342D02*
X174251905Y-75089580D01*
X174251905Y-75089580D02*
X174299524Y-75137200D01*
X174299524Y-75137200D02*
X174394762Y-75184819D01*
X174394762Y-75184819D02*
X174585238Y-75184819D01*
X174585238Y-75184819D02*
X174680476Y-75137200D01*
X174680476Y-75137200D02*
X174728095Y-75089580D01*
X174728095Y-75089580D02*
X174775714Y-74994342D01*
X174775714Y-74994342D02*
X174775714Y-74803866D01*
X174775714Y-74803866D02*
X174728095Y-74708628D01*
X174728095Y-74708628D02*
X174680476Y-74661009D01*
X174680476Y-74661009D02*
X174585238Y-74613390D01*
%TO.C,D3*%
X173251905Y-115824819D02*
X173251905Y-114824819D01*
X173251905Y-114824819D02*
X173490000Y-114824819D01*
X173490000Y-114824819D02*
X173632857Y-114872438D01*
X173632857Y-114872438D02*
X173728095Y-114967676D01*
X173728095Y-114967676D02*
X173775714Y-115062914D01*
X173775714Y-115062914D02*
X173823333Y-115253390D01*
X173823333Y-115253390D02*
X173823333Y-115396247D01*
X173823333Y-115396247D02*
X173775714Y-115586723D01*
X173775714Y-115586723D02*
X173728095Y-115681961D01*
X173728095Y-115681961D02*
X173632857Y-115777200D01*
X173632857Y-115777200D02*
X173490000Y-115824819D01*
X173490000Y-115824819D02*
X173251905Y-115824819D01*
X174156667Y-114824819D02*
X174775714Y-114824819D01*
X174775714Y-114824819D02*
X174442381Y-115205771D01*
X174442381Y-115205771D02*
X174585238Y-115205771D01*
X174585238Y-115205771D02*
X174680476Y-115253390D01*
X174680476Y-115253390D02*
X174728095Y-115301009D01*
X174728095Y-115301009D02*
X174775714Y-115396247D01*
X174775714Y-115396247D02*
X174775714Y-115634342D01*
X174775714Y-115634342D02*
X174728095Y-115729580D01*
X174728095Y-115729580D02*
X174680476Y-115777200D01*
X174680476Y-115777200D02*
X174585238Y-115824819D01*
X174585238Y-115824819D02*
X174299524Y-115824819D01*
X174299524Y-115824819D02*
X174204286Y-115777200D01*
X174204286Y-115777200D02*
X174156667Y-115729580D01*
%TO.C,R9*%
X185253333Y-107304819D02*
X184920000Y-106828628D01*
X184681905Y-107304819D02*
X184681905Y-106304819D01*
X184681905Y-106304819D02*
X185062857Y-106304819D01*
X185062857Y-106304819D02*
X185158095Y-106352438D01*
X185158095Y-106352438D02*
X185205714Y-106400057D01*
X185205714Y-106400057D02*
X185253333Y-106495295D01*
X185253333Y-106495295D02*
X185253333Y-106638152D01*
X185253333Y-106638152D02*
X185205714Y-106733390D01*
X185205714Y-106733390D02*
X185158095Y-106781009D01*
X185158095Y-106781009D02*
X185062857Y-106828628D01*
X185062857Y-106828628D02*
X184681905Y-106828628D01*
X185729524Y-107304819D02*
X185920000Y-107304819D01*
X185920000Y-107304819D02*
X186015238Y-107257200D01*
X186015238Y-107257200D02*
X186062857Y-107209580D01*
X186062857Y-107209580D02*
X186158095Y-107066723D01*
X186158095Y-107066723D02*
X186205714Y-106876247D01*
X186205714Y-106876247D02*
X186205714Y-106495295D01*
X186205714Y-106495295D02*
X186158095Y-106400057D01*
X186158095Y-106400057D02*
X186110476Y-106352438D01*
X186110476Y-106352438D02*
X186015238Y-106304819D01*
X186015238Y-106304819D02*
X185824762Y-106304819D01*
X185824762Y-106304819D02*
X185729524Y-106352438D01*
X185729524Y-106352438D02*
X185681905Y-106400057D01*
X185681905Y-106400057D02*
X185634286Y-106495295D01*
X185634286Y-106495295D02*
X185634286Y-106733390D01*
X185634286Y-106733390D02*
X185681905Y-106828628D01*
X185681905Y-106828628D02*
X185729524Y-106876247D01*
X185729524Y-106876247D02*
X185824762Y-106923866D01*
X185824762Y-106923866D02*
X186015238Y-106923866D01*
X186015238Y-106923866D02*
X186110476Y-106876247D01*
X186110476Y-106876247D02*
X186158095Y-106828628D01*
X186158095Y-106828628D02*
X186205714Y-106733390D01*
%TO.C,SW3*%
X163766667Y-85057200D02*
X163909524Y-85104819D01*
X163909524Y-85104819D02*
X164147619Y-85104819D01*
X164147619Y-85104819D02*
X164242857Y-85057200D01*
X164242857Y-85057200D02*
X164290476Y-85009580D01*
X164290476Y-85009580D02*
X164338095Y-84914342D01*
X164338095Y-84914342D02*
X164338095Y-84819104D01*
X164338095Y-84819104D02*
X164290476Y-84723866D01*
X164290476Y-84723866D02*
X164242857Y-84676247D01*
X164242857Y-84676247D02*
X164147619Y-84628628D01*
X164147619Y-84628628D02*
X163957143Y-84581009D01*
X163957143Y-84581009D02*
X163861905Y-84533390D01*
X163861905Y-84533390D02*
X163814286Y-84485771D01*
X163814286Y-84485771D02*
X163766667Y-84390533D01*
X163766667Y-84390533D02*
X163766667Y-84295295D01*
X163766667Y-84295295D02*
X163814286Y-84200057D01*
X163814286Y-84200057D02*
X163861905Y-84152438D01*
X163861905Y-84152438D02*
X163957143Y-84104819D01*
X163957143Y-84104819D02*
X164195238Y-84104819D01*
X164195238Y-84104819D02*
X164338095Y-84152438D01*
X164671429Y-84104819D02*
X164909524Y-85104819D01*
X164909524Y-85104819D02*
X165100000Y-84390533D01*
X165100000Y-84390533D02*
X165290476Y-85104819D01*
X165290476Y-85104819D02*
X165528572Y-84104819D01*
X165814286Y-84104819D02*
X166433333Y-84104819D01*
X166433333Y-84104819D02*
X166100000Y-84485771D01*
X166100000Y-84485771D02*
X166242857Y-84485771D01*
X166242857Y-84485771D02*
X166338095Y-84533390D01*
X166338095Y-84533390D02*
X166385714Y-84581009D01*
X166385714Y-84581009D02*
X166433333Y-84676247D01*
X166433333Y-84676247D02*
X166433333Y-84914342D01*
X166433333Y-84914342D02*
X166385714Y-85009580D01*
X166385714Y-85009580D02*
X166338095Y-85057200D01*
X166338095Y-85057200D02*
X166242857Y-85104819D01*
X166242857Y-85104819D02*
X165957143Y-85104819D01*
X165957143Y-85104819D02*
X165861905Y-85057200D01*
X165861905Y-85057200D02*
X165814286Y-85009580D01*
%TO.C,SW6*%
X163766667Y-54577200D02*
X163909524Y-54624819D01*
X163909524Y-54624819D02*
X164147619Y-54624819D01*
X164147619Y-54624819D02*
X164242857Y-54577200D01*
X164242857Y-54577200D02*
X164290476Y-54529580D01*
X164290476Y-54529580D02*
X164338095Y-54434342D01*
X164338095Y-54434342D02*
X164338095Y-54339104D01*
X164338095Y-54339104D02*
X164290476Y-54243866D01*
X164290476Y-54243866D02*
X164242857Y-54196247D01*
X164242857Y-54196247D02*
X164147619Y-54148628D01*
X164147619Y-54148628D02*
X163957143Y-54101009D01*
X163957143Y-54101009D02*
X163861905Y-54053390D01*
X163861905Y-54053390D02*
X163814286Y-54005771D01*
X163814286Y-54005771D02*
X163766667Y-53910533D01*
X163766667Y-53910533D02*
X163766667Y-53815295D01*
X163766667Y-53815295D02*
X163814286Y-53720057D01*
X163814286Y-53720057D02*
X163861905Y-53672438D01*
X163861905Y-53672438D02*
X163957143Y-53624819D01*
X163957143Y-53624819D02*
X164195238Y-53624819D01*
X164195238Y-53624819D02*
X164338095Y-53672438D01*
X164671429Y-53624819D02*
X164909524Y-54624819D01*
X164909524Y-54624819D02*
X165100000Y-53910533D01*
X165100000Y-53910533D02*
X165290476Y-54624819D01*
X165290476Y-54624819D02*
X165528572Y-53624819D01*
X166338095Y-53624819D02*
X166147619Y-53624819D01*
X166147619Y-53624819D02*
X166052381Y-53672438D01*
X166052381Y-53672438D02*
X166004762Y-53720057D01*
X166004762Y-53720057D02*
X165909524Y-53862914D01*
X165909524Y-53862914D02*
X165861905Y-54053390D01*
X165861905Y-54053390D02*
X165861905Y-54434342D01*
X165861905Y-54434342D02*
X165909524Y-54529580D01*
X165909524Y-54529580D02*
X165957143Y-54577200D01*
X165957143Y-54577200D02*
X166052381Y-54624819D01*
X166052381Y-54624819D02*
X166242857Y-54624819D01*
X166242857Y-54624819D02*
X166338095Y-54577200D01*
X166338095Y-54577200D02*
X166385714Y-54529580D01*
X166385714Y-54529580D02*
X166433333Y-54434342D01*
X166433333Y-54434342D02*
X166433333Y-54196247D01*
X166433333Y-54196247D02*
X166385714Y-54101009D01*
X166385714Y-54101009D02*
X166338095Y-54053390D01*
X166338095Y-54053390D02*
X166242857Y-54005771D01*
X166242857Y-54005771D02*
X166052381Y-54005771D01*
X166052381Y-54005771D02*
X165957143Y-54053390D01*
X165957143Y-54053390D02*
X165909524Y-54101009D01*
X165909524Y-54101009D02*
X165861905Y-54196247D01*
%TO.C,R6*%
X185253333Y-36184819D02*
X184920000Y-35708628D01*
X184681905Y-36184819D02*
X184681905Y-35184819D01*
X184681905Y-35184819D02*
X185062857Y-35184819D01*
X185062857Y-35184819D02*
X185158095Y-35232438D01*
X185158095Y-35232438D02*
X185205714Y-35280057D01*
X185205714Y-35280057D02*
X185253333Y-35375295D01*
X185253333Y-35375295D02*
X185253333Y-35518152D01*
X185253333Y-35518152D02*
X185205714Y-35613390D01*
X185205714Y-35613390D02*
X185158095Y-35661009D01*
X185158095Y-35661009D02*
X185062857Y-35708628D01*
X185062857Y-35708628D02*
X184681905Y-35708628D01*
X186110476Y-35184819D02*
X185920000Y-35184819D01*
X185920000Y-35184819D02*
X185824762Y-35232438D01*
X185824762Y-35232438D02*
X185777143Y-35280057D01*
X185777143Y-35280057D02*
X185681905Y-35422914D01*
X185681905Y-35422914D02*
X185634286Y-35613390D01*
X185634286Y-35613390D02*
X185634286Y-35994342D01*
X185634286Y-35994342D02*
X185681905Y-36089580D01*
X185681905Y-36089580D02*
X185729524Y-36137200D01*
X185729524Y-36137200D02*
X185824762Y-36184819D01*
X185824762Y-36184819D02*
X186015238Y-36184819D01*
X186015238Y-36184819D02*
X186110476Y-36137200D01*
X186110476Y-36137200D02*
X186158095Y-36089580D01*
X186158095Y-36089580D02*
X186205714Y-35994342D01*
X186205714Y-35994342D02*
X186205714Y-35756247D01*
X186205714Y-35756247D02*
X186158095Y-35661009D01*
X186158095Y-35661009D02*
X186110476Y-35613390D01*
X186110476Y-35613390D02*
X186015238Y-35565771D01*
X186015238Y-35565771D02*
X185824762Y-35565771D01*
X185824762Y-35565771D02*
X185729524Y-35613390D01*
X185729524Y-35613390D02*
X185681905Y-35661009D01*
X185681905Y-35661009D02*
X185634286Y-35756247D01*
%TO.C,SW7*%
X163766667Y-115537200D02*
X163909524Y-115584819D01*
X163909524Y-115584819D02*
X164147619Y-115584819D01*
X164147619Y-115584819D02*
X164242857Y-115537200D01*
X164242857Y-115537200D02*
X164290476Y-115489580D01*
X164290476Y-115489580D02*
X164338095Y-115394342D01*
X164338095Y-115394342D02*
X164338095Y-115299104D01*
X164338095Y-115299104D02*
X164290476Y-115203866D01*
X164290476Y-115203866D02*
X164242857Y-115156247D01*
X164242857Y-115156247D02*
X164147619Y-115108628D01*
X164147619Y-115108628D02*
X163957143Y-115061009D01*
X163957143Y-115061009D02*
X163861905Y-115013390D01*
X163861905Y-115013390D02*
X163814286Y-114965771D01*
X163814286Y-114965771D02*
X163766667Y-114870533D01*
X163766667Y-114870533D02*
X163766667Y-114775295D01*
X163766667Y-114775295D02*
X163814286Y-114680057D01*
X163814286Y-114680057D02*
X163861905Y-114632438D01*
X163861905Y-114632438D02*
X163957143Y-114584819D01*
X163957143Y-114584819D02*
X164195238Y-114584819D01*
X164195238Y-114584819D02*
X164338095Y-114632438D01*
X164671429Y-114584819D02*
X164909524Y-115584819D01*
X164909524Y-115584819D02*
X165100000Y-114870533D01*
X165100000Y-114870533D02*
X165290476Y-115584819D01*
X165290476Y-115584819D02*
X165528572Y-114584819D01*
X165814286Y-114584819D02*
X166480952Y-114584819D01*
X166480952Y-114584819D02*
X166052381Y-115584819D01*
%TO.C,D4*%
X173251905Y-54864819D02*
X173251905Y-53864819D01*
X173251905Y-53864819D02*
X173490000Y-53864819D01*
X173490000Y-53864819D02*
X173632857Y-53912438D01*
X173632857Y-53912438D02*
X173728095Y-54007676D01*
X173728095Y-54007676D02*
X173775714Y-54102914D01*
X173775714Y-54102914D02*
X173823333Y-54293390D01*
X173823333Y-54293390D02*
X173823333Y-54436247D01*
X173823333Y-54436247D02*
X173775714Y-54626723D01*
X173775714Y-54626723D02*
X173728095Y-54721961D01*
X173728095Y-54721961D02*
X173632857Y-54817200D01*
X173632857Y-54817200D02*
X173490000Y-54864819D01*
X173490000Y-54864819D02*
X173251905Y-54864819D01*
X174680476Y-54198152D02*
X174680476Y-54864819D01*
X174442381Y-53817200D02*
X174204286Y-54531485D01*
X174204286Y-54531485D02*
X174823333Y-54531485D01*
%TO.C,SW8*%
X163766667Y-95217200D02*
X163909524Y-95264819D01*
X163909524Y-95264819D02*
X164147619Y-95264819D01*
X164147619Y-95264819D02*
X164242857Y-95217200D01*
X164242857Y-95217200D02*
X164290476Y-95169580D01*
X164290476Y-95169580D02*
X164338095Y-95074342D01*
X164338095Y-95074342D02*
X164338095Y-94979104D01*
X164338095Y-94979104D02*
X164290476Y-94883866D01*
X164290476Y-94883866D02*
X164242857Y-94836247D01*
X164242857Y-94836247D02*
X164147619Y-94788628D01*
X164147619Y-94788628D02*
X163957143Y-94741009D01*
X163957143Y-94741009D02*
X163861905Y-94693390D01*
X163861905Y-94693390D02*
X163814286Y-94645771D01*
X163814286Y-94645771D02*
X163766667Y-94550533D01*
X163766667Y-94550533D02*
X163766667Y-94455295D01*
X163766667Y-94455295D02*
X163814286Y-94360057D01*
X163814286Y-94360057D02*
X163861905Y-94312438D01*
X163861905Y-94312438D02*
X163957143Y-94264819D01*
X163957143Y-94264819D02*
X164195238Y-94264819D01*
X164195238Y-94264819D02*
X164338095Y-94312438D01*
X164671429Y-94264819D02*
X164909524Y-95264819D01*
X164909524Y-95264819D02*
X165100000Y-94550533D01*
X165100000Y-94550533D02*
X165290476Y-95264819D01*
X165290476Y-95264819D02*
X165528572Y-94264819D01*
X166052381Y-94693390D02*
X165957143Y-94645771D01*
X165957143Y-94645771D02*
X165909524Y-94598152D01*
X165909524Y-94598152D02*
X165861905Y-94502914D01*
X165861905Y-94502914D02*
X165861905Y-94455295D01*
X165861905Y-94455295D02*
X165909524Y-94360057D01*
X165909524Y-94360057D02*
X165957143Y-94312438D01*
X165957143Y-94312438D02*
X166052381Y-94264819D01*
X166052381Y-94264819D02*
X166242857Y-94264819D01*
X166242857Y-94264819D02*
X166338095Y-94312438D01*
X166338095Y-94312438D02*
X166385714Y-94360057D01*
X166385714Y-94360057D02*
X166433333Y-94455295D01*
X166433333Y-94455295D02*
X166433333Y-94502914D01*
X166433333Y-94502914D02*
X166385714Y-94598152D01*
X166385714Y-94598152D02*
X166338095Y-94645771D01*
X166338095Y-94645771D02*
X166242857Y-94693390D01*
X166242857Y-94693390D02*
X166052381Y-94693390D01*
X166052381Y-94693390D02*
X165957143Y-94741009D01*
X165957143Y-94741009D02*
X165909524Y-94788628D01*
X165909524Y-94788628D02*
X165861905Y-94883866D01*
X165861905Y-94883866D02*
X165861905Y-95074342D01*
X165861905Y-95074342D02*
X165909524Y-95169580D01*
X165909524Y-95169580D02*
X165957143Y-95217200D01*
X165957143Y-95217200D02*
X166052381Y-95264819D01*
X166052381Y-95264819D02*
X166242857Y-95264819D01*
X166242857Y-95264819D02*
X166338095Y-95217200D01*
X166338095Y-95217200D02*
X166385714Y-95169580D01*
X166385714Y-95169580D02*
X166433333Y-95074342D01*
X166433333Y-95074342D02*
X166433333Y-94883866D01*
X166433333Y-94883866D02*
X166385714Y-94788628D01*
X166385714Y-94788628D02*
X166338095Y-94741009D01*
X166338095Y-94741009D02*
X166242857Y-94693390D01*
%TO.C,R5*%
X185253333Y-46344819D02*
X184920000Y-45868628D01*
X184681905Y-46344819D02*
X184681905Y-45344819D01*
X184681905Y-45344819D02*
X185062857Y-45344819D01*
X185062857Y-45344819D02*
X185158095Y-45392438D01*
X185158095Y-45392438D02*
X185205714Y-45440057D01*
X185205714Y-45440057D02*
X185253333Y-45535295D01*
X185253333Y-45535295D02*
X185253333Y-45678152D01*
X185253333Y-45678152D02*
X185205714Y-45773390D01*
X185205714Y-45773390D02*
X185158095Y-45821009D01*
X185158095Y-45821009D02*
X185062857Y-45868628D01*
X185062857Y-45868628D02*
X184681905Y-45868628D01*
X186158095Y-45344819D02*
X185681905Y-45344819D01*
X185681905Y-45344819D02*
X185634286Y-45821009D01*
X185634286Y-45821009D02*
X185681905Y-45773390D01*
X185681905Y-45773390D02*
X185777143Y-45725771D01*
X185777143Y-45725771D02*
X186015238Y-45725771D01*
X186015238Y-45725771D02*
X186110476Y-45773390D01*
X186110476Y-45773390D02*
X186158095Y-45821009D01*
X186158095Y-45821009D02*
X186205714Y-45916247D01*
X186205714Y-45916247D02*
X186205714Y-46154342D01*
X186205714Y-46154342D02*
X186158095Y-46249580D01*
X186158095Y-46249580D02*
X186110476Y-46297200D01*
X186110476Y-46297200D02*
X186015238Y-46344819D01*
X186015238Y-46344819D02*
X185777143Y-46344819D01*
X185777143Y-46344819D02*
X185681905Y-46297200D01*
X185681905Y-46297200D02*
X185634286Y-46249580D01*
%TO.C,D2*%
X173251905Y-95504819D02*
X173251905Y-94504819D01*
X173251905Y-94504819D02*
X173490000Y-94504819D01*
X173490000Y-94504819D02*
X173632857Y-94552438D01*
X173632857Y-94552438D02*
X173728095Y-94647676D01*
X173728095Y-94647676D02*
X173775714Y-94742914D01*
X173775714Y-94742914D02*
X173823333Y-94933390D01*
X173823333Y-94933390D02*
X173823333Y-95076247D01*
X173823333Y-95076247D02*
X173775714Y-95266723D01*
X173775714Y-95266723D02*
X173728095Y-95361961D01*
X173728095Y-95361961D02*
X173632857Y-95457200D01*
X173632857Y-95457200D02*
X173490000Y-95504819D01*
X173490000Y-95504819D02*
X173251905Y-95504819D01*
X174204286Y-94600057D02*
X174251905Y-94552438D01*
X174251905Y-94552438D02*
X174347143Y-94504819D01*
X174347143Y-94504819D02*
X174585238Y-94504819D01*
X174585238Y-94504819D02*
X174680476Y-94552438D01*
X174680476Y-94552438D02*
X174728095Y-94600057D01*
X174728095Y-94600057D02*
X174775714Y-94695295D01*
X174775714Y-94695295D02*
X174775714Y-94790533D01*
X174775714Y-94790533D02*
X174728095Y-94933390D01*
X174728095Y-94933390D02*
X174156667Y-95504819D01*
X174156667Y-95504819D02*
X174775714Y-95504819D01*
%TO.C,R4*%
X185253333Y-56504819D02*
X184920000Y-56028628D01*
X184681905Y-56504819D02*
X184681905Y-55504819D01*
X184681905Y-55504819D02*
X185062857Y-55504819D01*
X185062857Y-55504819D02*
X185158095Y-55552438D01*
X185158095Y-55552438D02*
X185205714Y-55600057D01*
X185205714Y-55600057D02*
X185253333Y-55695295D01*
X185253333Y-55695295D02*
X185253333Y-55838152D01*
X185253333Y-55838152D02*
X185205714Y-55933390D01*
X185205714Y-55933390D02*
X185158095Y-55981009D01*
X185158095Y-55981009D02*
X185062857Y-56028628D01*
X185062857Y-56028628D02*
X184681905Y-56028628D01*
X186110476Y-55838152D02*
X186110476Y-56504819D01*
X185872381Y-55457200D02*
X185634286Y-56171485D01*
X185634286Y-56171485D02*
X186253333Y-56171485D01*
%TO.C,SW1*%
X163766667Y-105377200D02*
X163909524Y-105424819D01*
X163909524Y-105424819D02*
X164147619Y-105424819D01*
X164147619Y-105424819D02*
X164242857Y-105377200D01*
X164242857Y-105377200D02*
X164290476Y-105329580D01*
X164290476Y-105329580D02*
X164338095Y-105234342D01*
X164338095Y-105234342D02*
X164338095Y-105139104D01*
X164338095Y-105139104D02*
X164290476Y-105043866D01*
X164290476Y-105043866D02*
X164242857Y-104996247D01*
X164242857Y-104996247D02*
X164147619Y-104948628D01*
X164147619Y-104948628D02*
X163957143Y-104901009D01*
X163957143Y-104901009D02*
X163861905Y-104853390D01*
X163861905Y-104853390D02*
X163814286Y-104805771D01*
X163814286Y-104805771D02*
X163766667Y-104710533D01*
X163766667Y-104710533D02*
X163766667Y-104615295D01*
X163766667Y-104615295D02*
X163814286Y-104520057D01*
X163814286Y-104520057D02*
X163861905Y-104472438D01*
X163861905Y-104472438D02*
X163957143Y-104424819D01*
X163957143Y-104424819D02*
X164195238Y-104424819D01*
X164195238Y-104424819D02*
X164338095Y-104472438D01*
X164671429Y-104424819D02*
X164909524Y-105424819D01*
X164909524Y-105424819D02*
X165100000Y-104710533D01*
X165100000Y-104710533D02*
X165290476Y-105424819D01*
X165290476Y-105424819D02*
X165528572Y-104424819D01*
X166433333Y-105424819D02*
X165861905Y-105424819D01*
X166147619Y-105424819D02*
X166147619Y-104424819D01*
X166147619Y-104424819D02*
X166052381Y-104567676D01*
X166052381Y-104567676D02*
X165957143Y-104662914D01*
X165957143Y-104662914D02*
X165861905Y-104710533D01*
%TO.C,SW2*%
X163766667Y-74897200D02*
X163909524Y-74944819D01*
X163909524Y-74944819D02*
X164147619Y-74944819D01*
X164147619Y-74944819D02*
X164242857Y-74897200D01*
X164242857Y-74897200D02*
X164290476Y-74849580D01*
X164290476Y-74849580D02*
X164338095Y-74754342D01*
X164338095Y-74754342D02*
X164338095Y-74659104D01*
X164338095Y-74659104D02*
X164290476Y-74563866D01*
X164290476Y-74563866D02*
X164242857Y-74516247D01*
X164242857Y-74516247D02*
X164147619Y-74468628D01*
X164147619Y-74468628D02*
X163957143Y-74421009D01*
X163957143Y-74421009D02*
X163861905Y-74373390D01*
X163861905Y-74373390D02*
X163814286Y-74325771D01*
X163814286Y-74325771D02*
X163766667Y-74230533D01*
X163766667Y-74230533D02*
X163766667Y-74135295D01*
X163766667Y-74135295D02*
X163814286Y-74040057D01*
X163814286Y-74040057D02*
X163861905Y-73992438D01*
X163861905Y-73992438D02*
X163957143Y-73944819D01*
X163957143Y-73944819D02*
X164195238Y-73944819D01*
X164195238Y-73944819D02*
X164338095Y-73992438D01*
X164671429Y-73944819D02*
X164909524Y-74944819D01*
X164909524Y-74944819D02*
X165100000Y-74230533D01*
X165100000Y-74230533D02*
X165290476Y-74944819D01*
X165290476Y-74944819D02*
X165528572Y-73944819D01*
X165861905Y-74040057D02*
X165909524Y-73992438D01*
X165909524Y-73992438D02*
X166004762Y-73944819D01*
X166004762Y-73944819D02*
X166242857Y-73944819D01*
X166242857Y-73944819D02*
X166338095Y-73992438D01*
X166338095Y-73992438D02*
X166385714Y-74040057D01*
X166385714Y-74040057D02*
X166433333Y-74135295D01*
X166433333Y-74135295D02*
X166433333Y-74230533D01*
X166433333Y-74230533D02*
X166385714Y-74373390D01*
X166385714Y-74373390D02*
X165814286Y-74944819D01*
X165814286Y-74944819D02*
X166433333Y-74944819D01*
%TO.C,R1*%
X185253333Y-66664819D02*
X184920000Y-66188628D01*
X184681905Y-66664819D02*
X184681905Y-65664819D01*
X184681905Y-65664819D02*
X185062857Y-65664819D01*
X185062857Y-65664819D02*
X185158095Y-65712438D01*
X185158095Y-65712438D02*
X185205714Y-65760057D01*
X185205714Y-65760057D02*
X185253333Y-65855295D01*
X185253333Y-65855295D02*
X185253333Y-65998152D01*
X185253333Y-65998152D02*
X185205714Y-66093390D01*
X185205714Y-66093390D02*
X185158095Y-66141009D01*
X185158095Y-66141009D02*
X185062857Y-66188628D01*
X185062857Y-66188628D02*
X184681905Y-66188628D01*
X186205714Y-66664819D02*
X185634286Y-66664819D01*
X185920000Y-66664819D02*
X185920000Y-65664819D01*
X185920000Y-65664819D02*
X185824762Y-65807676D01*
X185824762Y-65807676D02*
X185729524Y-65902914D01*
X185729524Y-65902914D02*
X185634286Y-65950533D01*
D11*
%TO.C,SW4*%
X161600000Y-37350000D02*
X161600000Y-38850000D01*
X162850000Y-41350000D02*
X167350000Y-41350000D01*
X167350000Y-34850000D02*
X162850000Y-34850000D01*
X168600000Y-38850000D02*
X168600000Y-37350000D01*
%TO.C,SW5*%
X161600000Y-47510000D02*
X161600000Y-49010000D01*
X162850000Y-51510000D02*
X167350000Y-51510000D01*
X167350000Y-45010000D02*
X162850000Y-45010000D01*
X168600000Y-49010000D02*
X168600000Y-47510000D01*
%TO.C,R7*%
X181380000Y-88900000D02*
X182150000Y-88900000D01*
X182150000Y-87530000D02*
X182150000Y-90270000D01*
X182150000Y-90270000D02*
X188690000Y-90270000D01*
X188690000Y-87530000D02*
X182150000Y-87530000D01*
X188690000Y-90270000D02*
X188690000Y-87530000D01*
X189460000Y-88900000D02*
X188690000Y-88900000D01*
%TO.C,D5*%
X171430000Y-46620000D02*
X171430000Y-49900000D01*
X177029998Y-48261958D02*
G75*
G03*
X171430001Y-46620489I-3039998J1958D01*
G01*
X171430001Y-49899511D02*
G75*
G03*
X177029998Y-48258042I2559999J1639511D01*
G01*
X176490000Y-48260000D02*
G75*
G03*
X176490000Y-48260000I-2500000J0D01*
G01*
%TO.C,R2*%
X181380000Y-99060000D02*
X182150000Y-99060000D01*
X182150000Y-97690000D02*
X182150000Y-100430000D01*
X182150000Y-100430000D02*
X188690000Y-100430000D01*
X188690000Y-97690000D02*
X182150000Y-97690000D01*
X188690000Y-100430000D02*
X188690000Y-97690000D01*
X189460000Y-99060000D02*
X188690000Y-99060000D01*
%TO.C,R3*%
X181380000Y-119380000D02*
X182150000Y-119380000D01*
X182150000Y-118010000D02*
X182150000Y-120750000D01*
X182150000Y-120750000D02*
X188690000Y-120750000D01*
X188690000Y-118010000D02*
X182150000Y-118010000D01*
X188690000Y-120750000D02*
X188690000Y-118010000D01*
X189460000Y-119380000D02*
X188690000Y-119380000D01*
%TO.C,D1*%
X171430000Y-66940000D02*
X171430000Y-70220000D01*
X177029998Y-68581958D02*
G75*
G03*
X171430001Y-66940489I-3039998J1958D01*
G01*
X171430001Y-70219511D02*
G75*
G03*
X177029998Y-68578042I2559999J1639511D01*
G01*
X176490000Y-68580000D02*
G75*
G03*
X176490000Y-68580000I-2500000J0D01*
G01*
%TO.C,D9*%
X171430000Y-107580000D02*
X171430000Y-110860000D01*
X177029998Y-109221958D02*
G75*
G03*
X171430001Y-107580489I-3039998J1958D01*
G01*
X171430001Y-110859511D02*
G75*
G03*
X177029998Y-109218042I2559999J1639511D01*
G01*
X176490000Y-109220000D02*
G75*
G03*
X176490000Y-109220000I-2500000J0D01*
G01*
%TO.C,J1*%
X173930000Y-26610000D02*
X175260000Y-26610000D01*
X173930000Y-27940000D02*
X173930000Y-26610000D01*
X173930000Y-29210000D02*
X173930000Y-29270000D01*
X173930000Y-29210000D02*
X176530000Y-29210000D01*
X173930000Y-29270000D02*
X179130000Y-29270000D01*
X176530000Y-26610000D02*
X179130000Y-26610000D01*
X176530000Y-29210000D02*
X176530000Y-26610000D01*
X179130000Y-26610000D02*
X179130000Y-29270000D01*
%TO.C,R8*%
X181380000Y-78740000D02*
X182150000Y-78740000D01*
X182150000Y-77370000D02*
X182150000Y-80110000D01*
X182150000Y-80110000D02*
X188690000Y-80110000D01*
X188690000Y-77370000D02*
X182150000Y-77370000D01*
X188690000Y-80110000D02*
X188690000Y-77370000D01*
X189460000Y-78740000D02*
X188690000Y-78740000D01*
%TO.C,SW9*%
X161600000Y-67830000D02*
X161600000Y-69330000D01*
X162850000Y-71830000D02*
X167350000Y-71830000D01*
X167350000Y-65330000D02*
X162850000Y-65330000D01*
X168600000Y-69330000D02*
X168600000Y-67830000D01*
%TO.C,D7*%
X171430000Y-87260000D02*
X171430000Y-90540000D01*
X177029998Y-88901958D02*
G75*
G03*
X171430001Y-87260489I-3039998J1958D01*
G01*
X171430001Y-90539511D02*
G75*
G03*
X177029998Y-88898042I2559999J1639511D01*
G01*
X176490000Y-88900000D02*
G75*
G03*
X176490000Y-88900000I-2500000J0D01*
G01*
%TO.C,D6*%
X171430000Y-36460000D02*
X171430000Y-39740000D01*
X177029998Y-38101958D02*
G75*
G03*
X171430001Y-36460489I-3039998J1958D01*
G01*
X171430001Y-39739511D02*
G75*
G03*
X177029998Y-38098042I2559999J1639511D01*
G01*
X176490000Y-38100000D02*
G75*
G03*
X176490000Y-38100000I-2500000J0D01*
G01*
%TO.C,D8*%
X171430000Y-77100000D02*
X171430000Y-80380000D01*
X177029998Y-78741958D02*
G75*
G03*
X171430001Y-77100489I-3039998J1958D01*
G01*
X171430001Y-80379511D02*
G75*
G03*
X177029998Y-78738042I2559999J1639511D01*
G01*
X176490000Y-78740000D02*
G75*
G03*
X176490000Y-78740000I-2500000J0D01*
G01*
%TO.C,D3*%
X171430000Y-117740000D02*
X171430000Y-121020000D01*
X177029998Y-119381958D02*
G75*
G03*
X171430001Y-117740489I-3039998J1958D01*
G01*
X171430001Y-121019511D02*
G75*
G03*
X177029998Y-119378042I2559999J1639511D01*
G01*
X176490000Y-119380000D02*
G75*
G03*
X176490000Y-119380000I-2500000J0D01*
G01*
%TO.C,R9*%
X181380000Y-109220000D02*
X182150000Y-109220000D01*
X182150000Y-107850000D02*
X182150000Y-110590000D01*
X182150000Y-110590000D02*
X188690000Y-110590000D01*
X188690000Y-107850000D02*
X182150000Y-107850000D01*
X188690000Y-110590000D02*
X188690000Y-107850000D01*
X189460000Y-109220000D02*
X188690000Y-109220000D01*
%TO.C,SW3*%
X161600000Y-88150000D02*
X161600000Y-89650000D01*
X162850000Y-92150000D02*
X167350000Y-92150000D01*
X167350000Y-85650000D02*
X162850000Y-85650000D01*
X168600000Y-89650000D02*
X168600000Y-88150000D01*
%TO.C,SW6*%
X161600000Y-57670000D02*
X161600000Y-59170000D01*
X162850000Y-61670000D02*
X167350000Y-61670000D01*
X167350000Y-55170000D02*
X162850000Y-55170000D01*
X168600000Y-59170000D02*
X168600000Y-57670000D01*
%TO.C,R6*%
X181380000Y-38100000D02*
X182150000Y-38100000D01*
X182150000Y-36730000D02*
X182150000Y-39470000D01*
X182150000Y-39470000D02*
X188690000Y-39470000D01*
X188690000Y-36730000D02*
X182150000Y-36730000D01*
X188690000Y-39470000D02*
X188690000Y-36730000D01*
X189460000Y-38100000D02*
X188690000Y-38100000D01*
%TO.C,SW7*%
X161600000Y-118630000D02*
X161600000Y-120130000D01*
X162850000Y-122630000D02*
X167350000Y-122630000D01*
X167350000Y-116130000D02*
X162850000Y-116130000D01*
X168600000Y-120130000D02*
X168600000Y-118630000D01*
%TO.C,D4*%
X171430000Y-56780000D02*
X171430000Y-60060000D01*
X177029998Y-58421958D02*
G75*
G03*
X171430001Y-56780489I-3039998J1958D01*
G01*
X171430001Y-60059511D02*
G75*
G03*
X177029998Y-58418042I2559999J1639511D01*
G01*
X176490000Y-58420000D02*
G75*
G03*
X176490000Y-58420000I-2500000J0D01*
G01*
%TO.C,SW8*%
X161600000Y-98310000D02*
X161600000Y-99810000D01*
X162850000Y-102310000D02*
X167350000Y-102310000D01*
X167350000Y-95810000D02*
X162850000Y-95810000D01*
X168600000Y-99810000D02*
X168600000Y-98310000D01*
%TO.C,R5*%
X181380000Y-48260000D02*
X182150000Y-48260000D01*
X182150000Y-46890000D02*
X182150000Y-49630000D01*
X182150000Y-49630000D02*
X188690000Y-49630000D01*
X188690000Y-46890000D02*
X182150000Y-46890000D01*
X188690000Y-49630000D02*
X188690000Y-46890000D01*
X189460000Y-48260000D02*
X188690000Y-48260000D01*
%TO.C,D2*%
X171430000Y-97420000D02*
X171430000Y-100700000D01*
X177029998Y-99061958D02*
G75*
G03*
X171430001Y-97420489I-3039998J1958D01*
G01*
X171430001Y-100699511D02*
G75*
G03*
X177029998Y-99058042I2559999J1639511D01*
G01*
X176490000Y-99060000D02*
G75*
G03*
X176490000Y-99060000I-2500000J0D01*
G01*
%TO.C,R4*%
X181380000Y-58420000D02*
X182150000Y-58420000D01*
X182150000Y-57050000D02*
X182150000Y-59790000D01*
X182150000Y-59790000D02*
X188690000Y-59790000D01*
X188690000Y-57050000D02*
X182150000Y-57050000D01*
X188690000Y-59790000D02*
X188690000Y-57050000D01*
X189460000Y-58420000D02*
X188690000Y-58420000D01*
%TO.C,SW1*%
X161600000Y-108470000D02*
X161600000Y-109970000D01*
X162850000Y-112470000D02*
X167350000Y-112470000D01*
X167350000Y-105970000D02*
X162850000Y-105970000D01*
X168600000Y-109970000D02*
X168600000Y-108470000D01*
%TO.C,SW2*%
X161600000Y-77990000D02*
X161600000Y-79490000D01*
X162850000Y-81990000D02*
X167350000Y-81990000D01*
X167350000Y-75490000D02*
X162850000Y-75490000D01*
X168600000Y-79490000D02*
X168600000Y-77990000D01*
%TO.C,R1*%
X181380000Y-68580000D02*
X182150000Y-68580000D01*
X182150000Y-67210000D02*
X182150000Y-69950000D01*
X182150000Y-69950000D02*
X188690000Y-69950000D01*
X188690000Y-67210000D02*
X182150000Y-67210000D01*
X188690000Y-69950000D02*
X188690000Y-67210000D01*
X189460000Y-68580000D02*
X188690000Y-68580000D01*
%TD*%
M02*
